<svg xmlns="http://www.w3.org/2000/svg" viewBox="0 0 1324.48 184.36"><defs><style>.cls-1{fill:#c7867e;}</style></defs><title>pag_4Risorsa 1</title><g id="Livello_2" data-name="Livello 2"><g id="Livello_8" data-name="Livello 8"><path class="cls-1" d="M1324.48,111.9c-16.91,4.41-27,8-29.55,11.88l-206.14,4c5.19-6.83-16.41-5.79-67.84-.73,87.59-14.91,88.7-18-2.19-35.47,95.05,11.74,98.11,9,19.28-34.14,86.6,38.08,91.31,35.76,39.06-22.2,61,52.17,65,48.71,38.17-12.39,40.05,58.14,49.31,58.64,62.88,6.91,2.19,44.9,8.68,37.57,22.62,10-1.19,23,5.5,29.31,23.66,21.08-4.07,14,3.32,13.48,14.8,7.17,6.26-2.71,16.61-11.2,29.55-24.22-12.31,45-1.23,49.2,46,34.63C1283.08,103.07,1287.54,109,1324.48,111.9Z"/><path class="cls-1" d="M0,125.74c18.84,5.51,30.07,10,32.92,14.82l229.69,5c-5.78-8.52,18.28-7.23,75.59-.91-97.59-18.6-98.83-22.4,2.44-44.26C234.73,115,231.33,111.57,319.16,57.75c-96.49,47.51-101.74,44.61-43.52-27.7-67.92,65.09-72.38,60.77-42.53-15.46C188.49,87.13,178.17,87.75,163,23.21c-2.44,56-9.68,46.88-25.2,12.46,1.33,28.68-6.13,36.56-26.37,26.31C116,79.47,107.77,78.8,95,70.93c-7-3.38-18.5-14-32.93-30.21,13.72,56.11,1.37,61.39-51.25,43.2C46.12,114.73,41.16,122.08,0,125.74Z"/><path class="cls-1" d="M766.31,116.67c-10.22,4.41-16.31,8-17.85,11.88l-124.57,4c3.14-6.83-9.92-5.79-41-.73,52.93-14.91,53.6-18-1.32-35.47,57.44,11.74,59.29,9,11.65-34.14,52.33,38.08,55.18,35.76,23.6-22.2,36.84,52.17,39.25,48.71,23.06-12.39,24.2,58.14,29.8,58.64,38,6.91,1.32,44.9,5.25,37.57,13.67,10-.72,23,3.33,29.31,14.3,21.08-2.46,14,2,13.48,8.94,7.17,3.79-2.71,10-11.2,17.86-24.22-7.44,45-.74,49.2,27.8,34.63C741.3,107.85,744,113.74,766.31,116.67Z"/><path class="cls-1" d="M796.09,111.15c11.39,5.51,18.17,10,19.89,14.82l138.81,5c-3.5-8.52,11-7.23,45.68-.91-59-18.6-59.72-22.4,1.47-44.26-64,14.65-66.06,11.23-13-42.59-58.31,47.51-61.48,44.61-26.3-27.7C921.61,80.55,918.92,76.23,937,0c-27,72.53-33.21,73.16-42.34,8.62-1.47,56-5.85,46.88-15.23,12.46.8,28.68-3.71,36.56-15.93,26.31,2.74,17.48-2.24,16.82-10,8.95-4.22-3.38-11.18-14-19.9-30.21,8.29,56.11.83,61.39-31,43.2C824,100.13,821,107.48,796.09,111.15Z"/><path class="cls-1" d="M377.56,123.56c10,7.75,15.7,13.58,16.39,18.62l134.77,33.6c-1.65-9.06,12.31-4.78,44.88,8.57-53.84-30.42-53.79-34.29,10.61-43-65.65,1.07-67-2.7-3.88-44.36-66.89,34.4-69.39,30.91-20-32.55C506.7,119.64,505,114.85,538.41,44c-41.41,65.37-47.64,64.69-43.21-.34-13,54.5-15.43,44.65-17.48,9-5.16,28.22-11.2,35-21,22.43-.94,17.67-5.67,16-11.6,6.69-3.43-4.18-8-16-13.21-33.68C428.35,104.77,420,108.38,392.62,84,407.11,118.57,402.66,125.13,377.56,123.56Z"/></g></g></svg>